<?xml version="1.0" encoding="UTF-8" standalone="no"?>
<!-- Generator: Adobe Illustrator 18.0.0, SVG Export Plug-In . SVG Version: 6.00 Build 0)  -->

<svg
   version="1.1"
   id="Capa_1"
   x="0px"
   y="0px"
   viewBox="0 0 297 297"
   style="enable-background:new 0 0 297 297;"
   xml:space="preserve"
   sodipodi:docname="hindu.svg"
   inkscape:version="1.1.1 (3bf5ae0d25, 2021-09-20)"
   inkscape:export-filename="C:\Users\pedro\Desktop\site\img\g8.png"
   inkscape:export-xdpi="26.828192"
   inkscape:export-ydpi="26.828192"
   xmlns:inkscape="http://www.inkscape.org/namespaces/inkscape"
   xmlns:sodipodi="http://sodipodi.sourceforge.net/DTD/sodipodi-0.dtd"
   xmlns:xlink="http://www.w3.org/1999/xlink"
   xmlns="http://www.w3.org/2000/svg"
   xmlns:svg="http://www.w3.org/2000/svg"><defs
   id="defs43"><linearGradient
     inkscape:collect="always"
     id="linearGradient5434"><stop
       style="stop-color:#ea001b;stop-opacity:1;"
       offset="0"
       id="stop5430" /><stop
       style="stop-color:#ff8929;stop-opacity:1"
       offset="1"
       id="stop5432" /></linearGradient><linearGradient
     inkscape:collect="always"
     id="linearGradient5428"><stop
       style="stop-color:#ea001b;stop-opacity:1;"
       offset="0"
       id="stop5424" /><stop
       style="stop-color:#ff8929;stop-opacity:1"
       offset="1"
       id="stop5426" /></linearGradient><linearGradient
     inkscape:collect="always"
     id="linearGradient5352"><stop
       style="stop-color:#ea001b;stop-opacity:1;"
       offset="0"
       id="stop5348" /><stop
       style="stop-color:#ff8929;stop-opacity:1"
       offset="1"
       id="stop5350" /></linearGradient><linearGradient
     inkscape:collect="always"
     xlink:href="#linearGradient5352"
     id="linearGradient5354"
     x1="148.11"
     y1="26.539"
     x2="147.33881"
     y2="298.45554"
     gradientUnits="userSpaceOnUse" /><linearGradient
     inkscape:collect="always"
     xlink:href="#linearGradient5434"
     id="linearGradient5356"
     x1="148.11"
     y1="26.539"
     x2="147.33881"
     y2="298.45554"
     gradientUnits="userSpaceOnUse" /><linearGradient
     inkscape:collect="always"
     xlink:href="#linearGradient5428"
     id="linearGradient5358"
     x1="148.11"
     y1="26.539"
     x2="147.33881"
     y2="298.45554"
     gradientUnits="userSpaceOnUse" /></defs><sodipodi:namedview
   id="namedview41"
   pagecolor="#ffffff"
   bordercolor="#666666"
   borderopacity="1.0"
   inkscape:pageshadow="2"
   inkscape:pageopacity="0.0"
   inkscape:pagecheckerboard="0"
   showgrid="false"
   inkscape:zoom="1.0587842"
   inkscape:cx="156.7836"
   inkscape:cy="173.31199"
   inkscape:window-width="1280"
   inkscape:window-height="737"
   inkscape:window-x="-8"
   inkscape:window-y="-8"
   inkscape:window-maximized="1"
   inkscape:current-layer="g8" />
<g
   id="g8"
   style="fill:#d45500"
   inkscape:export-filename="C:\Users\pedro\Desktop\site\img\g8.png"
   inkscape:export-xdpi="26.828192"
   inkscape:export-ydpi="26.828192">
	<path
   d="M179.837,199.863h15.713c3.682,0,6.666-2.984,6.666-6.666s-2.984-6.666-6.666-6.666h-15.713   c-3.682,0-6.666,2.984-6.666,6.666S176.156,199.863,179.837,199.863z"
   id="path2"
   style="fill:url(#linearGradient5354);fill-opacity:1" />
	<path
   d="M101.271,199.863h15.713c3.682,0,6.666-2.984,6.666-6.666s-2.984-6.666-6.666-6.666h-15.713   c-3.682,0-6.666,2.984-6.666,6.666S97.589,199.863,101.271,199.863z"
   id="path4"
   style="fill:url(#linearGradient5356);fill-opacity:1" />
	<path
   d="M75.337,247.11c-6.964,4.618-10.892,4.918-15.174,1.499c-3.949-3.156-9.68-2.675-13.048,1.099   c-3.367,3.773-3.198,9.52,0.384,13.089c0.699,0.696,17.248,16.876,43.515,16.876c3.536-0.044,7.867-0.383,11.385-0.998   C116.824,290.658,132.512,297,148.5,297s31.676-6.342,46.101-18.325c3.518,0.615,7.447,0.976,10.984,0.998   c26.264,0.164,43.218-16.18,43.916-16.876c3.582-3.569,3.751-9.316,0.384-13.089c-3.368-3.773-9.098-4.257-13.048-1.099   c-4.28,3.418-8.209,3.12-15.174-1.499c16.166-26.306,25.427-61.368,30.28-90.385c3.174-18.975,19.798-74.365,19.798-74.365   c3.575-13.433,0.766-27.458-7.705-38.479c-5.914-7.693-13.958-13.075-23.003-15.633l1.693-3.641c1.137-2.275,1.318-4.91,0.5-7.319   c-0.817-2.409-2.565-4.39-4.852-5.503c-54.873-26.696-87.528,0.143-88.891,1.299c-3.349,2.838-4.324,7.597-2.36,11.523l0.987,1.932   H68.167c-13.901,0-26.732,6.321-35.203,17.342c-8.471,11.021-11.28,25.046-7.705,38.479c0,0,16.625,55.389,19.798,74.365   C49.909,185.742,59.171,220.804,75.337,247.11z M165.668,61.883L51.156,105.608l-4.172-15.677l103.471-44.345h7.39L165.668,61.883z    M183.26,70.346c0-6.826,5.554-12.38,12.38-12.38c6.826,0,12.38,5.554,12.38,12.38c0,6.826-5.554,12.38-12.38,12.38   C188.814,82.727,183.26,77.173,183.26,70.346z M224.812,82.014l25.086,8.362l-4.371,16.426l-33.586-9.596   C217.716,93.689,222.265,88.358,224.812,82.014z M56.043,123.973l78.184-29.174l106.401,30.413l-4.445,16.702l-84.671-28.224   c-0.977-0.326-1.994-0.488-3.011-0.488c-1.017,0-2.034,0.163-3.011,0.488l-84.671,28.224L56.043,123.973z M225.706,62.343   l7.116-16.44c6.369,0.997,12.099,4.363,16.113,9.585c3.639,4.734,5.447,10.439,5.251,16.239L225.706,62.343z M221.211,25.051   l-9.23,18.461c-0.392-0.239-0.79-0.468-1.193-0.691l5.227-19.62C217.71,23.755,219.44,24.366,221.211,25.051z M205.885,20.53   l-5.017,18.833c-0.234-0.04-0.468-0.079-0.704-0.113V19.601C202.008,19.829,203.915,20.135,205.885,20.53z M189.688,19.078v20.414   c-0.213,0.041-0.425,0.082-0.636,0.128l-5.35-20.082C185.583,19.3,187.577,19.138,189.688,19.078z M173.467,21.811l5.789,21.729   c-0.351,0.215-0.696,0.438-1.038,0.666l-10.14-20.28C169.605,23.214,171.408,22.484,173.467,21.811z M48.065,55.489   c4.837-6.293,12.164-9.903,20.102-9.903h33.936L42.809,70.998C42.782,65.45,44.579,60.024,48.065,55.489z M206.604,235.276   c-11.878-9.864-25.348-20.176-42.39-20.176c-5.935,0-11.399,2.06-15.713,5.502c-4.314-3.442-9.778-5.502-15.713-5.502   c-17.042,0-30.512,10.311-42.39,20.176c-13.448-21.882-23.095-49.744-25.809-74.542l83.913-27.971l83.897,27.966   C229.685,185.53,220.054,213.391,206.604,235.276z M89.353,260.62c3.57-2.615,7.107-5.595,10.743-8.632   c10.494-8.771,21.346-17.841,32.692-17.841c2.293,0,4.3,1.255,5.37,3.113C122.593,252.471,104.51,260.326,89.353,260.62z    M148.5,277.953c-7.912,0-15.988-2.428-23.903-7.012c8.065-4.227,16.045-9.97,23.903-17.238   c7.859,7.268,15.838,13.011,23.904,17.238C164.488,275.525,156.412,277.953,148.5,277.953z M207.648,260.626   c-15.255-0.192-33.133-8.048-48.805-23.366c1.07-1.858,3.076-3.113,5.37-3.113c11.345,0,22.197,9.07,32.691,17.841   C200.54,255.025,204.078,258.01,207.648,260.626z"
   id="path6"
   style="fill:url(#linearGradient5358);fill-opacity:1" />
</g>
<g
   id="g10">
</g>
<g
   id="g12">
</g>
<g
   id="g14">
</g>
<g
   id="g16">
</g>
<g
   id="g18">
</g>
<g
   id="g20">
</g>
<g
   id="g22">
</g>
<g
   id="g24">
</g>
<g
   id="g26">
</g>
<g
   id="g28">
</g>
<g
   id="g30">
</g>
<g
   id="g32">
</g>
<g
   id="g34">
</g>
<g
   id="g36">
</g>
<g
   id="g38">
</g>
</svg>
